<?xml version="1.0" standalone="no"?>
<!DOCTYPE svg PUBLIC "-//W3C//DTD SVG 20010904//EN"
 "http://www.w3.org/TR/2001/REC-SVG-20010904/DTD/svg10.dtd">
<svg version="1.0" xmlns="http://www.w3.org/2000/svg"
 width="500.000000pt" height="500.000000pt" viewBox="0 0 500.000000 500.000000"
 preserveAspectRatio="xMidYMid meet">

<g transform="translate(0.000000,500.000000) scale(0.100000,-0.100000)"
fill="#000000" stroke="none">
<path d="M1455 2768 c-180 -563 -336 -1039 -346 -1060 -13 -25 -27 -38 -46
-42 -27 -5 -189 -26 -205 -26 -5 0 -8 -18 -8 -40 l0 -40 310 0 310 0 0 40 c0
22 -3 40 -8 40 -17 0 -179 21 -201 26 -21 5 -23 9 -19 52 3 26 40 154 82 285
l77 237 403 0 402 0 77 -243 c91 -285 97 -311 71 -325 -16 -8 -171 -32 -211
-32 -8 0 -13 -15 -13 -40 l0 -40 353 -2 352 -3 0 -283 c0 -326 6 -305 -98
-316 -153 -16 -147 -14 -147 -57 l0 -39 395 0 395 0 0 39 c0 43 12 39 -157 57
-109 12 -98 -107 -101 1028 l-2 996 249 0 c222 0 251 -2 270 -17 16 -13 35
-69 75 -213 l53 -195 42 -3 41 -3 0 270 0 271 -817 2 -817 3 -113 348 -114
347 -102 0 -103 0 -329 -1022z m531 156 c97 -302 179 -555 181 -561 4 -10 -72
-13 -361 -13 -201 0 -366 3 -366 8 0 5 337 1058 356 1111 2 8 7 12 9 9 3 -2
84 -251 181 -554z m854 -610 l0 -665 -57 7 c-88 10 -98 17 -121 76 -49 125
-372 1138 -372 1167 0 21 9 41 25 56 l24 25 251 0 250 0 0 -666z"/>
</g>
</svg>
